<?xml version="1.0" encoding="iso-8859-1"?>
<!-- Generator: Adobe Illustrator 19.0.0, SVG Export Plug-In . SVG Version: 6.00 Build 0)  -->
<svg version="1.1" id="Layer_1" xmlns="http://www.w3.org/2000/svg" xmlns:xlink="http://www.w3.org/1999/xlink" x="0px" y="0px"
	 viewBox="0 0 270 270" fill="white" style="enable-background:new 0 0 270 270;" xml:space="preserve">
<g id="XMLID_461_">
	<path id="XMLID_462_" d="M50,15v14.993h170V15c0-8.284-6.716-15-15-15H65C56.716,0,50,6.716,50,15z"/>
	<path id="XMLID_463_" d="M235.001,60.009L220,60.007v-0.014H50h-3.578l-11.421-0.001H35c-3.979,0-7.793,1.581-10.606,4.393
		C21.58,67.199,20,71.014,20,74.992V255c0,8.284,6.716,15,15,15h85v-23.012V240v-15.008c0-8.285,6.716-15,15-15s15,6.715,15,15V240
		v6.988V270h85c8.284,0,15-6.716,15-15V75.009C250,66.725,243.285,60.009,235.001,60.009z M120,119.998l-70-0.005v-30l70,0.005
		V119.998z M220,120.007l-70-0.005v-30l70,0.005V120.007z"/>
</g>
<g>
</g>
<g>
</g>
<g>
</g>
<g>
</g>
<g>
</g>
<g>
</g>
<g>
</g>
<g>
</g>
<g>
</g>
<g>
</g>
<g>
</g>
<g>
</g>
<g>
</g>
<g>
</g>
<g>
</g>
</svg>
